{
  "accessors": [
    {
      "bufferView": 2,
      "componentType": 5126,
      "count": 65532,
      "max": [
        375.0429992675781,
        20.180700302124023,
        129.09640502929688
      ],
      "min": [
        69.35600280761719,
        0.14410018920898438,
        0.86920166015625
      ],
      "type": "VEC3"
    },
    {
      "bufferView": 2,
      "byteOffset": 786384,
      "componentType": 5126,
      "count": 65532,
      "max": [
        0.9996826648712158,
        0.9998677372932434,
        0.9999595880508423
      ],
      "min": [
        -0.999416708946228,
        -0.9999997019767761,
        -0.9998351335525513
      ],
      "type": "VEC3"
    },
    {
      "bufferView": 1,
      "componentType": 5126,
      "count": 65532,
      "max": [
        0.9993500113487244,
        0.9993280172348022
      ],
      "min": [
        0.0006493100081570446,
        0.0006493119872175157
      ],
      "type": "VEC2"
    },
    {
      "bufferView": 0,
      "componentType": 5125,
      "count": 307911,
      "type": "SCALAR"
    },
    {
      "bufferView": 2,
      "byteOffset": 1572768,
      "componentType": 5126,
      "count": 65532,
      "max": [
        375.125,
        20.430700302124023,
        128.5153045654297
      ],
      "min": [
        25.332000732421875,
        1.6303997039794922,
        1.3841018676757813
      ],
      "type": "VEC3"
    },
    {
      "bufferView": 2,
      "byteOffset": 2359152,
      "componentType": 5126,
      "count": 65532,
      "max": [
        0.9986754655838013,
        0.9935991168022156,
        0.9997181296348572
      ],
      "min": [
        -0.9976678490638733,
        -0.9999996423721313,
        -0.9998255372047424
      ],
      "type": "VEC3"
    },
    {
      "bufferView": 1,
      "byteOffset": 524256,
      "componentType": 5126,
      "count": 65532,
      "max": [
        0.9993420243263245,
        0.9993450045585632
      ],
      "min": [
        0.0006493119872175157,
        0.0006493119872175157
      ],
      "type": "VEC2"
    },
    {
      "bufferView": 0,
      "byteOffset": 1231644,
      "componentType": 5125,
      "count": 299463,
      "type": "SCALAR"
    },
    {
      "bufferView": 2,
      "byteOffset": 3145536,
      "componentType": 5126,
      "count": 65532,
      "max": [
        369.64599609375,
        21.670801162719727,
        127.9031982421875
      ],
      "min": [
        17.6510009765625,
        1.3915996551513672,
        2.9654006958007813
      ],
      "type": "VEC3"
    },
    {
      "bufferView": 2,
      "byteOffset": 3931920,
      "componentType": 5126,
      "count": 65532,
      "max": [
        0.9989640116691589,
        0.9994372725486755,
        0.9999890923500061
      ],
      "min": [
        -0.9996337294578552,
        -1.0,
        -0.9998107552528381
      ],
      "type": "VEC3"
    },
    {
      "bufferView": 1,
      "byteOffset": 1048512,
      "componentType": 5126,
      "count": 65532,
      "max": [
        0.999334990978241,
        0.9993460178375244
      ],
      "min": [
        0.0006493140244856477,
        0.0006493119872175157
      ],
      "type": "VEC2"
    },
    {
      "bufferView": 0,
      "byteOffset": 2429496,
      "componentType": 5125,
      "count": 284913,
      "type": "SCALAR"
    },
    {
      "bufferView": 2,
      "byteOffset": 4718304,
      "componentType": 5126,
      "count": 65532,
      "max": [
        376.4280090332031,
        21.562898635864258,
        128.68679809570313
      ],
      "min": [
        0.0,
        0.3665008544921875,
        6.9579010009765625
      ],
      "type": "VEC3"
    },
    {
      "bufferView": 2,
      "byteOffset": 5504688,
      "componentType": 5126,
      "count": 65532,
      "max": [
        0.999933660030365,
        0.9995965957641602,
        0.9990583062171936
      ],
      "min": [
        -0.9994798898696899,
        -0.9999998807907104,
        -0.9997857809066772
      ],
      "type": "VEC3"
    },
    {
      "bufferView": 1,
      "byteOffset": 1572768,
      "componentType": 5126,
      "count": 65532,
      "max": [
        0.9986780285835266,
        0.9991250038146973
      ],
      "min": [
        0.0008646529749967158,
        0.009142110124230385
      ],
      "type": "VEC2"
    },
    {
      "bufferView": 0,
      "byteOffset": 3569148,
      "componentType": 5125,
      "count": 281532,
      "type": "SCALAR"
    },
    {
      "bufferView": 2,
      "byteOffset": 6291072,
      "componentType": 5126,
      "count": 65532,
      "max": [
        374.7340087890625,
        22.364301681518555,
        128.22940063476563
      ],
      "min": [
        0.0,
        0.0,
        0.2754020690917969
      ],
      "type": "VEC3"
    },
    {
      "bufferView": 2,
      "byteOffset": 7077456,
      "componentType": 5126,
      "count": 65532,
      "max": [
        0.9996568560600281,
        0.9998784065246582,
        0.9999736547470093
      ],
      "min": [
        -0.9996432662010193,
        -0.9999998211860657,
        -0.9999933242797852
      ],
      "type": "VEC3"
    },
    {
      "bufferView": 1,
      "byteOffset": 2097024,
      "componentType": 5126,
      "count": 65532,
      "max": [
        0.9993469715118408,
        0.9993469715118408
      ],
      "min": [
        0.0006493100081570446,
        0.0006493119872175157
      ],
      "type": "VEC2"
    },
    {
      "bufferView": 0,
      "byteOffset": 4695276,
      "componentType": 5125,
      "count": 240054,
      "type": "SCALAR"
    },
    {
      "bufferView": 2,
      "byteOffset": 7863840,
      "componentType": 5126,
      "count": 65534,
      "max": [
        360.44000244140625,
        18.862699508666992,
        122.71070098876953
      ],
      "min": [
        7.3730010986328125,
        2.406299591064453,
        6.553600311279297
      ],
      "type": "VEC3"
    },
    {
      "bufferView": 2,
      "byteOffset": 8650248,
      "componentType": 5126,
      "count": 65534,
      "max": [
        0.9998777508735657,
        0.9999410510063171,
        0.9996418356895447
      ],
      "min": [
        -0.9996824860572815,
        -0.9999997615814209,
        -0.9999700784683228
      ],
      "type": "VEC3"
    },
    {
      "bufferView": 1,
      "byteOffset": 2621280,
      "componentType": 5126,
      "count": 65534,
      "max": [
        0.999347984790802,
        0.999243974685669
      ],
      "min": [
        0.0006493100081570446,
        0.0006493119872175157
      ],
      "type": "VEC2"
    },
    {
      "bufferView": 0,
      "byteOffset": 5655492,
      "componentType": 5125,
      "count": 251430,
      "type": "SCALAR"
    },
    {
      "bufferView": 2,
      "byteOffset": 9436656,
      "componentType": 5126,
      "count": 65532,
      "max": [
        376.76300048828125,
        23.658601760864258,
        128.58880615234375
      ],
      "min": [
        7.0410003662109375,
        0.4174995422363281,
        0.0
      ],
      "type": "VEC3"
    },
    {
      "bufferView": 2,
      "byteOffset": 10223040,
      "componentType": 5126,
      "count": 65532,
      "max": [
        0.999980628490448,
        0.997600257396698,
        0.9999736547470093
      ],
      "min": [
        -0.9997662305831909,
        -0.9999982118606567,
        -0.9999465346336365
      ],
      "type": "VEC3"
    },
    {
      "bufferView": 1,
      "byteOffset": 3145552,
      "componentType": 5126,
      "count": 65532,
      "max": [
        0.9992129802703857,
        0.9993270039558411
      ],
      "min": [
        0.013528400100767612,
        0.0014159700367599726
      ],
      "type": "VEC2"
    },
    {
      "bufferView": 0,
      "byteOffset": 6661212,
      "componentType": 5125,
      "count": 291867,
      "type": "SCALAR"
    },
    {
      "bufferView": 2,
      "byteOffset": 11009424,
      "componentType": 5126,
      "count": 65532,
      "max": [
        376.79998779296875,
        27.897600173950195,
        128.77340698242188
      ],
      "min": [
        6.759002685546875,
        0.14529991149902344,
        5.369800567626953
      ],
      "type": "VEC3"
    },
    {
      "bufferView": 2,
      "byteOffset": 11795808,
      "componentType": 5126,
      "count": 65532,
      "max": [
        0.998062014579773,
        0.997751772403717,
        0.9998401999473572
      ],
      "min": [
        -0.9990875124931335,
        -0.9999999403953552,
        -0.9999465346336365
      ],
      "type": "VEC3"
    },
    {
      "bufferView": 1,
      "byteOffset": 3669808,
      "componentType": 5126,
      "count": 65532,
      "max": [
        0.9993500113487244,
        0.997409999370575
      ],
      "min": [
        0.036233801394701004,
        0.0006493119872175157
      ],
      "type": "VEC2"
    },
    {
      "bufferView": 0,
      "byteOffset": 7828680,
      "componentType": 5125,
      "count": 281436,
      "type": "SCALAR"
    },
    {
      "bufferView": 2,
      "byteOffset": 12582192,
      "componentType": 5126,
      "count": 65532,
      "max": [
        377.80902099609375,
        32.82530212402344,
        141.81820678710938
      ],
      "min": [
        32.928009033203125,
        0.2362995147705078,
        1.582000732421875
      ],
      "type": "VEC3"
    },
    {
      "bufferView": 2,
      "byteOffset": 13368576,
      "componentType": 5126,
      "count": 65532,
      "max": [
        0.9978438019752502,
        0.9993296265602112,
        0.9999417066574097
      ],
      "min": [
        -0.9990875124931335,
        -0.9999997615814209,
        -0.9987905025482178
      ],
      "type": "VEC3"
    },
    {
      "bufferView": 1,
      "byteOffset": 4194064,
      "componentType": 5126,
      "count": 65532,
      "max": [
        0.9993020296096802,
        0.9992120265960693
      ],
      "min": [
        0.03877339884638786,
        0.0008891759789548814
      ],
      "type": "VEC2"
    },
    {
      "bufferView": 0,
      "byteOffset": 8954424,
      "componentType": 5125,
      "count": 297735,
      "type": "SCALAR"
    },
    {
      "bufferView": 2,
      "byteOffset": 14154960,
      "componentType": 5126,
      "count": 65532,
      "max": [
        377.80902099609375,
        34.104103088378906,
        146.3614044189453
      ],
      "min": [
        9.467010498046875,
        0.08939933776855469,
        1.0894012451171875
      ],
      "type": "VEC3"
    },
    {
      "bufferView": 2,
      "byteOffset": 14941344,
      "componentType": 5126,
      "count": 65532,
      "max": [
        0.99803227186203,
        0.9996601939201355,
        0.9984465837478638
      ],
      "min": [
        -0.9981169104576111,
        -0.9999995231628418,
        -0.9997735023498535
      ],
      "type": "VEC3"
    },
    {
      "bufferView": 1,
      "byteOffset": 4718320,
      "componentType": 5126,
      "count": 65532,
      "max": [
        0.9993399977684021,
        0.9993339776992798
      ],
      "min": [
        0.03891110047698021,
        0.0006493119872175157
      ],
      "type": "VEC2"
    },
    {
      "bufferView": 0,
      "byteOffset": 10145364,
      "componentType": 5125,
      "count": 241212,
      "type": "SCALAR"
    },
    {
      "bufferView": 2,
      "byteOffset": 15727728,
      "componentType": 5126,
      "count": 62859,
      "max": [
        374.81298828125,
        18.89729881286621,
        128.8354034423828
      ],
      "min": [
        6.9340057373046875,
        1.6940994262695313,
        7.472301483154297
      ],
      "type": "VEC3"
    },
    {
      "bufferView": 2,
      "byteOffset": 16482036,
      "componentType": 5126,
      "count": 62859,
      "max": [
        0.9999123811721802,
        0.9999680519104004,
        0.9993680119514465
      ],
      "min": [
        -0.9997121095657349,
        -0.9999998807907104,
        -0.9997857809066772
      ],
      "type": "VEC3"
    },
    {
      "bufferView": 1,
      "byteOffset": 5242576,
      "componentType": 5126,
      "count": 62859,
      "max": [
        0.9993500113487244,
        0.9993339776992798
      ],
      "min": [
        0.0006493119872175157,
        0.0006493119872175157
      ],
      "type": "VEC2"
    },
    {
      "bufferView": 0,
      "byteOffset": 11110212,
      "componentType": 5125,
      "count": 222447,
      "type": "SCALAR"
    }
  ],
  "asset": {
    "extras": {
      "author": "Mirante (https://sketchfab.com/mirante)",
      "license": "CC-BY-4.0 (http://creativecommons.org/licenses/by/4.0/)",
      "source": "https://sketchfab.com/3d-models/aerofotogrametria-cava-mineracao-034417b5613d46a3ba82c617699649d4",
      "title": "Aerofotogrametria - CAVA MINERAÇÃO"
    },
    "generator": "Sketchfab-12.66.0",
    "version": "2.0"
  },
  "bufferViews": [
    {
      "buffer": 0,
      "byteLength": 12000000,
      "name": "floatBufferViews",
      "target": 34963
    },
    {
      "buffer": 0,
      "byteLength": 5745448,
      "byteOffset": 12000000,
      "byteStride": 8,
      "name": "floatBufferViews",
      "target": 34962
    },
    {
      "buffer": 0,
      "byteLength": 17236344,
      "byteOffset": 17745448,
      "byteStride": 12,
      "name": "floatBufferViews",
      "target": 34962
    }
  ],
  "buffers": [
    {
      "byteLength": 34981792,
      "uri": "scene.bin"
    }
  ],
  "extensionsUsed": [
    "KHR_materials_unlit"
  ],
  "images": [
    {
      "uri": "textures/material_0_baseColor.jpeg"
    }
  ],
  "materials": [
    {
      "doubleSided": true,
      "extensions": {
        "KHR_materials_unlit": {}
      },
      "name": "material_0",
      "pbrMetallicRoughness": {
        "baseColorTexture": {
          "index": 0
        },
        "metallicFactor": 0.0
      }
    }
  ],
  "meshes": [
    {
      "name": "Object_0",
      "primitives": [
        {
          "attributes": {
            "NORMAL": 1,
            "POSITION": 0,
            "TEXCOORD_0": 2
          },
          "indices": 3,
          "material": 0,
          "mode": 4
        }
      ]
    },
    {
      "name": "Object_1",
      "primitives": [
        {
          "attributes": {
            "NORMAL": 5,
            "POSITION": 4,
            "TEXCOORD_0": 6
          },
          "indices": 7,
          "material": 0,
          "mode": 4
        }
      ]
    },
    {
      "name": "Object_2",
      "primitives": [
        {
          "attributes": {
            "NORMAL": 9,
            "POSITION": 8,
            "TEXCOORD_0": 10
          },
          "indices": 11,
          "material": 0,
          "mode": 4
        }
      ]
    },
    {
      "name": "Object_3",
      "primitives": [
        {
          "attributes": {
            "NORMAL": 13,
            "POSITION": 12,
            "TEXCOORD_0": 14
          },
          "indices": 15,
          "material": 0,
          "mode": 4
        }
      ]
    },
    {
      "name": "Object_4",
      "primitives": [
        {
          "attributes": {
            "NORMAL": 17,
            "POSITION": 16,
            "TEXCOORD_0": 18
          },
          "indices": 19,
          "material": 0,
          "mode": 4
        }
      ]
    },
    {
      "name": "Object_5",
      "primitives": [
        {
          "attributes": {
            "NORMAL": 21,
            "POSITION": 20,
            "TEXCOORD_0": 22
          },
          "indices": 23,
          "material": 0,
          "mode": 4
        }
      ]
    },
    {
      "name": "Object_6",
      "primitives": [
        {
          "attributes": {
            "NORMAL": 25,
            "POSITION": 24,
            "TEXCOORD_0": 26
          },
          "indices": 27,
          "material": 0,
          "mode": 4
        }
      ]
    },
    {
      "name": "Object_7",
      "primitives": [
        {
          "attributes": {
            "NORMAL": 29,
            "POSITION": 28,
            "TEXCOORD_0": 30
          },
          "indices": 31,
          "material": 0,
          "mode": 4
        }
      ]
    },
    {
      "name": "Object_8",
      "primitives": [
        {
          "attributes": {
            "NORMAL": 33,
            "POSITION": 32,
            "TEXCOORD_0": 34
          },
          "indices": 35,
          "material": 0,
          "mode": 4
        }
      ]
    },
    {
      "name": "Object_9",
      "primitives": [
        {
          "attributes": {
            "NORMAL": 37,
            "POSITION": 36,
            "TEXCOORD_0": 38
          },
          "indices": 39,
          "material": 0,
          "mode": 4
        }
      ]
    },
    {
      "name": "Object_10",
      "primitives": [
        {
          "attributes": {
            "NORMAL": 41,
            "POSITION": 40,
            "TEXCOORD_0": 42
          },
          "indices": 43,
          "material": 0,
          "mode": 4
        }
      ]
    }
  ],
  "nodes": [
    {
      "children": [
        1
      ],
      "matrix": [
        0.011805213987827301,
        0.0,
        0.0,
        0.0,
        0.0,
        -0.011805213987827301,
        -5.242568151965133e-18,
        0.0,
        0.0,
        5.242568151965133e-18,
        -0.011805213987827301,
        0.0,
        0.0,
        54.51310348510743,
        -20.9347801208496,
        1.0
      ],
      "name": "Sketchfab_model"
    },
    {
      "children": [
        2,
        3,
        4,
        5,
        6,
        7,
        8,
        9,
        10,
        11,
        12
      ],
      "matrix": [
        1.0,
        0.0,
        0.0,
        0.0,
        0.0,
        1.0,
        0.0,
        0.0,
        0.0,
        0.0,
        1.0,
        0.0,
        -180.4340057373047,
        20.671899795532227,
        -56.3916015625,
        1.0
      ],
      "name": "teste usiminas modelo_simplified_3d_mesh.obj.cleaner.gles"
    },
    {
      "mesh": 0,
      "name": "Object_2"
    },
    {
      "mesh": 1,
      "name": "Object_3"
    },
    {
      "mesh": 2,
      "name": "Object_4"
    },
    {
      "mesh": 3,
      "name": "Object_5"
    },
    {
      "mesh": 4,
      "name": "Object_6"
    },
    {
      "mesh": 5,
      "name": "Object_7"
    },
    {
      "mesh": 6,
      "name": "Object_8"
    },
    {
      "mesh": 7,
      "name": "Object_9"
    },
    {
      "mesh": 8,
      "name": "Object_10"
    },
    {
      "mesh": 9,
      "name": "Object_11"
    },
    {
      "mesh": 10,
      "name": "Object_12"
    }
  ],
  "samplers": [
    {
      "magFilter": 9729,
      "minFilter": 9987,
      "wrapS": 10497,
      "wrapT": 10497
    }
  ],
  "scene": 0,
  "scenes": [
    {
      "name": "Sketchfab_Scene",
      "nodes": [
        0
      ]
    }
  ],
  "textures": [
    {
      "sampler": 0,
      "source": 0
    }
  ]
}
